<?xml version="1.0" standalone="no"?>
<!DOCTYPE svg PUBLIC "-//W3C//DTD SVG 20010904//EN"
 "http://www.w3.org/TR/2001/REC-SVG-20010904/DTD/svg10.dtd">
<svg version="1.0" xmlns="http://www.w3.org/2000/svg"
 width="1575.081492pt" height="1575.081492pt" viewBox="0 -337.433852 1575.081492 1575.081492"
 preserveAspectRatio="xMidYMid meet">
<metadata>
Created by potrace 1.16, written by Peter Selinger 2001-2019
</metadata>
<g transform="translate(-908.118508,2558.713788) scale(0.100000,-0.100000)"
fill="#000000" stroke="none">
<!-- Icon-only extract from the clean Bizrush clipart; wordmark paths removed and the canvas padded to a square. -->
<path d="M12724 25580 c-12 -5 -25 -13 -29 -19 -9 -15 -72 -14 -78 2 -2 7 -8
8 -13 3 -5 -5 -4 -11 4 -13 24 -9 11 -30 -64 -106 -65 -66 -77 -83 -81 -119
-3 -24 -13 -51 -22 -62 -12 -13 -16 -39 -16 -101 0 -62 4 -88 16 -101 9 -11
19 -38 22 -62 4 -31 15 -52 41 -79 38 -40 42 -48 26 -58 -5 -3 -10 -13 -10
-21 0 -17 27 -19 33 -1 2 7 8 8 13 3 5 -5 4 -11 -3 -13 -16 -6 -17 -29 -2 -39
7 -4 16 1 21 10 12 21 56 21 81 -1 l19 -18 1006 -3 1006 -2 18 -17 c14 -13 21
-14 30 -5 34 34 55 -23 22 -60 l-17 -18 19 -6 c11 -3 25 -8 32 -10 23 -7 72 8
72 23 0 10 9 13 32 11 25 -2 33 -9 39 -31 4 -15 23 -44 42 -63 26 -27 36 -47
40 -80 2 -25 11 -53 20 -62 8 -10 17 -44 19 -79 3 -37 11 -69 20 -80 11 -12
17 -43 20 -99 2 -60 8 -87 21 -101 24 -27 25 -158 1 -167 -10 -4 -14 -15 -12
-33 4 -36 20 -33 33 6 15 48 29 31 36 -42 3 -39 12 -74 21 -84 9 -11 17 -44
20 -80 3 -39 10 -69 21 -81 21 -23 25 -158 5 -165 -7 -2 -9 -8 -5 -13 4 -5 12
-2 17 5 4 8 15 11 24 8 14 -6 16 -29 16 -171 0 -166 -5 -191 -36 -165 -19 16
-31 4 -15 -15 19 -22 7 -33 -44 -38 -25 -3 -54 -13 -64 -22 l-17 -16 -1381 -2
-1381 -3 -19 -17 c-13 -12 -36 -18 -65 -18 -36 0 -49 -5 -61 -22 -8 -13 -38
-47 -66 -75 -28 -29 -51 -60 -51 -69 0 -9 -9 -27 -20 -41 -11 -14 -20 -34 -20
-43 0 -10 -7 -23 -15 -30 -19 -16 -20 -74 -1 -89 8 -7 15 -38 18 -76 2 -41 10
-70 21 -83 9 -10 17 -26 17 -36 0 -22 103 -126 125 -126 9 0 28 -9 42 -20 14
-11 33 -20 41 -20 9 0 24 -8 35 -17 15 -15 42 -19 144 -21 l125 -4 14 -34 c8
-19 16 -34 19 -34 3 0 11 16 19 35 l15 35 604 0 c332 0 607 -3 610 -7 4 -3 0
-14 -9 -24 -21 -23 -10 -39 25 -39 23 0 30 6 37 33 l10 32 407 3 c358 2 407 0
407 -13 0 -10 -10 -15 -33 -15 -39 0 -82 -25 -57 -33 8 -3 39 -8 69 -11 30 -3
61 -12 71 -21 29 -26 73 -19 99 16 l23 31 -17 19 c-15 15 -15 20 -4 24 27 10
534 1 532 -10 -1 -5 -19 -12 -40 -15 -75 -11 -82 -40 -9 -40 49 0 66 -13 66
-51 0 -21 6 -28 33 -35 l32 -10 3 -43 c4 -52 -7 -68 -36 -50 -12 7 -25 10 -29
5 -4 -4 0 -12 10 -17 32 -18 21 -62 -28 -110 l-45 -44 -3024 -5 -3024 -5 -19
-17 c-11 -10 -27 -18 -37 -18 -9 0 -58 -40 -107 -89 -81 -79 -91 -94 -96 -133
-3 -24 -13 -51 -22 -62 -22 -25 -22 -137 0 -162 9 -11 19 -38 22 -62 4 -31 15
-52 40 -78 19 -20 38 -49 41 -65 4 -21 13 -30 33 -35 15 -4 36 -14 46 -22 10
-9 43 -18 80 -20 38 -3 69 -11 81 -21 16 -14 74 -16 547 -19 474 -2 534 -1
565 14 27 13 37 14 49 4 11 -9 19 -8 37 4 29 21 57 20 81 -1 17 -16 46 -18
228 -21 179 -3 214 -1 244 14 28 13 38 14 50 4 12 -10 20 -9 40 4 13 9 31 16
40 16 9 0 27 -7 40 -16 20 -13 28 -14 40 -4 12 10 22 9 49 -4 19 -9 51 -16 71
-16 20 0 52 7 71 16 28 13 37 14 49 4 13 -10 19 -10 33 4 25 22 100 21 125 -1
12 -11 35 -18 62 -18 27 0 50 7 62 18 25 22 134 24 153 2 20 -24 74 -29 112
-11 l34 16 33 -16 c45 -22 200 -17 228 9 14 12 36 17 78 17 42 0 64 -5 78 -17
16 -15 38 -18 122 -18 84 0 106 3 122 18 24 21 56 22 73 2 15 -18 71 -20 87
-4 9 9 21 8 46 -5 43 -20 64 -20 101 -1 l29 16 35 -17 c46 -21 162 -16 190 9
27 24 207 25 234 1 26 -25 108 -30 150 -10 l35 17 29 -16 c41 -21 218 -21 259
1 24 12 34 13 52 3 18 -9 26 -9 38 1 12 10 22 9 51 -5 44 -21 125 -16 152 9
26 23 178 23 204 -1 l18 -16 18 16 18 17 17 -17 16 -17 19 17 c26 24 233 25
252 2 12 -14 15 -14 30 0 24 22 262 22 280 0 7 -8 27 -15 45 -15 18 0 38 7 45
15 7 8 23 15 37 15 13 0 26 -7 29 -15 7 -18 35 -20 51 -4 9 9 21 8 46 -5 27
-12 65 -16 164 -16 l129 0 47 -47 47 -47 0 -101 0 -102 -64 -64 -65 -64 -1784
-5 -1785 -5 -18 -16 c-11 -9 -39 -19 -64 -22 -24 -3 -49 -12 -55 -19 -6 -7
-23 -24 -37 -37 -23 -20 -30 -22 -43 -11 -20 16 -32 5 -15 -14 10 -13 8 -20
-9 -42 -12 -15 -21 -34 -21 -42 0 -9 -7 -23 -16 -33 -9 -10 -19 -39 -21 -63
-3 -25 -12 -51 -19 -57 -18 -15 -18 -73 0 -88 8 -7 15 -38 18 -75 l4 -64 88
-89 88 -88 1800 -3 1800 -2 25 -20 c14 -11 33 -20 43 -20 9 0 37 -21 62 -46
37 -37 46 -54 51 -90 2 -25 12 -53 21 -63 9 -10 16 -24 16 -33 0 -8 8 -26 19
-39 10 -13 21 -43 24 -67 3 -24 12 -51 21 -61 19 -21 21 -77 4 -84 -7 -2 -9
-8 -5 -13 4 -5 12 -2 17 5 4 8 15 11 24 8 21 -8 21 -60 0 -77 -16 -14 -16 -59
1 -63 6 -1 14 13 20 31 10 37 28 37 33 1 2 -13 22 -42 43 -63 21 -22 39 -48
39 -58 0 -10 27 -46 59 -79 33 -35 62 -74 65 -91 4 -21 13 -30 34 -34 15 -3
47 -23 70 -45 24 -21 50 -39 58 -39 9 0 27 -9 41 -20 14 -11 32 -20 40 -20 8
0 26 -9 40 -20 14 -11 33 -20 41 -20 9 0 24 -8 34 -17 12 -11 42 -18 81 -21
38 -3 69 -11 81 -21 15 -13 48 -17 181 -19 127 -3 166 -7 176 -18 15 -19 73
-18 89 1 18 22 222 22 240 0 12 -14 15 -14 30 0 14 13 56 15 260 15 218 0 245
-2 263 -17 12 -11 35 -18 62 -18 27 0 50 7 62 18 l20 17 420 0 c362 0 422 -2
433 -15 7 -8 27 -15 45 -15 18 0 38 7 45 15 18 22 262 22 280 0 12 -14 15 -14
30 0 25 22 541 23 560 0 7 -8 27 -15 45 -15 18 0 38 7 45 15 18 22 262 22 280
0 12 -14 15 -14 30 0 13 12 44 15 147 15 105 0 133 -3 143 -15 12 -14 15 -14
30 0 25 23 177 21 203 -2 12 -11 35 -18 62 -18 27 0 50 7 62 18 18 15 45 17
258 17 213 0 240 -2 258 -17 15 -14 37 -18 102 -18 65 0 87 4 102 18 26 22
100 23 125 0 l18 -16 18 16 18 17 17 -17 16 -17 19 17 c27 25 177 24 205 0 14
-13 36 -18 82 -18 46 0 68 5 82 18 17 14 41 17 165 17 118 0 148 -3 158 -15
12 -14 15 -14 30 0 23 21 98 20 123 -2 25 -23 98 -24 123 -1 15 13 45 17 140
20 95 2 126 7 140 19 11 9 39 19 63 22 35 4 52 14 92 56 27 28 49 58 49 68 0
9 7 25 16 35 10 10 19 40 22 68 2 27 11 55 19 61 11 10 11 14 -1 28 -8 9 -16
45 -18 83 l-4 66 -67 67 c-56 57 -73 68 -109 72 -24 3 -51 13 -62 22 l-18 16
-3103 3 -3102 2 -86 87 c-48 47 -87 94 -87 103 0 10 -9 29 -20 43 -11 14 -20
32 -20 40 0 8 -9 26 -20 40 -24 30 -26 65 -5 73 25 10 17 35 -15 47 -35 13
-38 27 -9 53 16 15 24 16 39 6 20 -12 50 -7 50 9 0 5 1322 10 3149 11 l3149 3
18 16 c11 9 38 19 62 22 24 3 51 12 61 21 10 9 25 16 34 16 9 0 35 18 59 40
24 22 51 40 62 40 24 0 235 208 243 240 3 14 14 36 25 49 10 13 18 31 18 39 0
9 7 23 16 33 9 10 18 37 21 61 3 24 14 54 24 67 11 13 19 31 19 39 0 9 7 23
16 33 9 10 18 37 21 61 3 24 12 51 20 60 8 9 17 36 20 60 3 24 12 51 20 60 8
9 17 36 20 60 3 24 12 51 20 60 8 9 17 36 20 60 3 24 12 51 20 60 8 9 17 36
20 60 3 24 12 51 20 60 8 9 17 36 20 60 3 24 12 51 20 60 8 9 17 36 20 60 3
24 12 51 20 60 8 9 17 36 20 60 3 24 13 51 21 61 9 10 18 44 20 80 3 40 11 71
23 86 11 13 19 31 19 39 0 9 7 23 16 33 9 10 18 37 21 61 3 24 12 51 20 60 8
9 17 36 20 60 3 24 13 51 21 61 9 10 18 43 20 80 2 35 11 69 19 79 8 9 17 36
20 60 3 24 12 51 20 60 8 9 17 36 20 60 3 24 14 54 24 67 11 13 19 31 19 39 0
9 8 24 17 34 11 12 18 42 21 81 2 35 11 69 19 79 8 9 17 36 20 60 3 24 12 51
20 60 8 9 17 36 20 60 3 24 12 51 20 60 8 9 17 36 20 60 3 24 12 51 20 60 8 9
17 36 20 60 3 24 12 51 20 60 8 9 17 36 20 60 3 24 12 51 20 60 8 9 17 36 20
60 3 24 13 51 22 62 11 12 17 43 19 100 3 57 9 86 21 100 23 26 23 176 -1 202
-12 14 -17 44 -20 120 l-3 101 -37 39 c-21 21 -38 46 -38 55 0 9 -9 28 -20 42
-11 14 -20 32 -20 41 0 8 -18 34 -40 58 -22 24 -40 51 -40 61 0 23 -64 87 -87
87 -10 0 -46 27 -81 60 -34 33 -70 60 -79 60 -9 0 -24 7 -34 16 -10 9 -37 18
-61 21 -24 3 -51 12 -60 20 -9 8 -36 17 -60 20 -24 3 -51 13 -62 22 -15 13
-49 17 -185 19 -128 3 -170 7 -182 18 -14 13 -18 13 -29 -1 -8 -10 -30 -15
-65 -15 -35 0 -57 5 -65 15 -12 14 -15 14 -30 0 -10 -9 -36 -15 -67 -15 -33 0
-55 5 -63 15 -12 14 -15 14 -30 0 -13 -12 -44 -15 -147 -15 -105 0 -133 3
-143 15 -12 14 -15 14 -30 0 -13 -12 -44 -15 -147 -15 -105 0 -133 3 -143 15
-12 14 -15 14 -30 0 -25 -22 -186 -21 -212 2 l-18 16 -18 -16 -18 -17 -17 17
-16 17 -19 -17 c-26 -24 -273 -25 -292 -2 -12 14 -15 14 -30 0 -9 -8 -30 -15
-47 -15 -17 0 -36 7 -43 15 -12 14 -15 14 -30 0 -22 -20 -69 -19 -92 2 l-18
16 -18 -16 -18 -17 -17 17 -16 17 -19 -17 c-17 -15 -53 -17 -344 -17 -275 0
-327 2 -338 15 -20 24 -74 29 -113 10 -29 -14 -39 -14 -55 -4 -18 11 -24 10
-40 -4 l-18 -17 -17 17 -16 17 -19 -17 c-23 -21 -65 -22 -82 -2 -15 18 -71 20
-88 3 -10 -10 -17 -10 -33 0 -16 10 -24 10 -42 -3 -28 -20 -56 -19 -80 3 -16
15 -45 17 -205 20 -147 3 -190 6 -203 18 -14 13 -18 13 -29 -1 -10 -11 -34
-15 -107 -15 -67 0 -105 -5 -130 -16 -25 -13 -37 -14 -46 -5 -16 16 -72 14
-87 -4 -17 -21 -89 -19 -113 3 -17 15 -47 17 -248 20 -197 3 -234 1 -264 -14
-29 -13 -38 -14 -50 -4 -12 10 -20 10 -38 1 -18 -10 -28 -9 -52 3 -39 20 -141
21 -179 1 l-29 -16 -35 17 c-38 18 -92 13 -112 -11 -17 -20 -49 -19 -73 3
l-19 17 -369 3 c-319 2 -374 1 -403 -13 -29 -14 -35 -14 -62 0 -21 11 -61 15
-145 15 -92 0 -119 3 -129 15 -12 14 -15 14 -30 0 -14 -13 -79 -15 -479 -15
l-463 0 -25 20 c-14 11 -34 20 -45 20 -23 0 -36 29 -17 40 7 5 10 13 5 17 -5
4 -11 2 -13 -4 -3 -7 -19 -13 -36 -13 -63 0 -117 92 -70 119 10 5 14 13 10 17
-4 5 -17 3 -28 -4 -28 -18 -36 -9 -41 43 -3 25 -13 54 -22 64 -9 10 -16 24
-16 33 0 8 -9 27 -20 41 -11 14 -20 32 -20 40 0 8 -9 26 -20 40 -11 14 -20 32
-20 41 0 8 -18 34 -40 58 -22 24 -40 51 -40 61 0 10 -26 44 -57 76 -107 108
-107 109 -93 126 17 20 5 32 -15 15 -13 -11 -20 -9 -43 11 -14 13 -31 30 -37
37 -6 7 -31 16 -55 19 -25 3 -53 12 -62 20 -9 8 -36 17 -60 20 -24 3 -51 13
-62 22 l-18 16 -1332 2 c-739 1 -1341 -2 -1352 -7z"/>
<path d="M11204 24340 c-12 -5 -25 -13 -29 -19 -3 -6 -14 -11 -24 -11 -10 0
-30 -9 -44 -20 -14 -11 -32 -20 -41 -20 -9 0 -32 -16 -51 -35 -19 -19 -35 -42
-35 -51 0 -9 -9 -27 -20 -41 -11 -14 -20 -33 -20 -41 0 -9 -8 -24 -17 -35 -15
-16 -18 -39 -18 -142 0 -105 3 -126 18 -143 11 -12 17 -31 15 -49 -2 -22 -9
-29 -30 -31 -16 -2 -28 -9 -28 -18 0 -19 39 -18 62 3 l19 17 46 -45 c25 -24
54 -52 64 -61 11 -10 27 -18 36 -18 9 0 25 -8 36 -17 14 -13 41 -19 101 -21
57 -3 86 -9 100 -21 l18 -16 1083 0 1083 0 19 18 c16 13 38 17 110 17 64 0 93
-4 96 -12 2 -7 8 -9 13 -5 5 4 2 12 -5 17 -20 11 -6 40 19 40 25 0 130 101
130 125 0 9 9 28 20 42 11 14 20 33 20 41 0 9 8 24 18 35 14 16 17 38 17 122
0 84 -3 106 -17 122 -10 11 -18 26 -18 35 0 8 -9 27 -20 41 -11 14 -20 32 -20
41 0 22 -65 86 -87 86 -10 0 -36 17 -57 38 l-39 37 -1251 2 c-694 1 -1261 -2
-1272 -7z"/>
<path d="M17530 18383 c-8 -3 -22 -11 -30 -18 -8 -7 -43 -15 -77 -17 -37 -2
-70 -11 -80 -20 -10 -8 -37 -18 -61 -21 -24 -3 -51 -12 -61 -21 -10 -9 -24
-16 -33 -16 -8 0 -27 -9 -41 -20 -14 -11 -32 -20 -41 -20 -9 0 -44 -27 -78
-60 -35 -33 -71 -60 -81 -60 -23 0 -87 -64 -87 -87 0 -10 -27 -46 -60 -81 -33
-34 -60 -69 -60 -78 0 -9 -9 -27 -20 -41 -11 -14 -20 -33 -20 -41 0 -9 -7 -23
-16 -33 -9 -10 -18 -37 -21 -61 -3 -24 -13 -51 -22 -62 -12 -13 -17 -44 -19
-120 -3 -76 -8 -106 -20 -120 -22 -24 -22 -98 -1 -122 10 -12 18 -43 21 -81 3
-39 10 -69 21 -81 9 -10 17 -25 17 -34 0 -8 9 -27 20 -41 11 -14 20 -32 20
-40 0 -8 9 -26 20 -40 11 -14 20 -33 20 -42 0 -22 182 -205 205 -205 9 0 28
-9 42 -20 14 -11 33 -20 41 -20 9 0 23 -7 33 -16 10 -9 37 -18 61 -21 24 -3
51 -13 62 -22 15 -14 50 -16 241 -16 192 0 225 2 241 16 12 10 43 18 81 21 37
2 70 11 80 20 10 8 37 18 61 21 31 4 52 15 79 41 21 20 45 36 55 36 9 0 36 18
60 40 24 22 52 40 62 40 10 0 61 42 112 94 52 51 94 102 94 112 0 10 18 38 40
62 22 24 40 50 40 58 0 9 9 27 20 41 11 14 20 33 20 41 0 9 8 24 17 35 13 14
19 41 21 101 3 57 9 86 21 100 24 27 24 255 0 282 -10 12 -18 43 -21 81 -3 39
-10 69 -21 81 -9 10 -17 25 -17 34 0 8 -9 27 -20 41 -11 14 -20 33 -20 42 0
22 -183 205 -205 205 -9 0 -28 9 -42 20 -14 11 -33 20 -41 20 -9 0 -23 7 -33
16 -10 9 -37 18 -61 21 -24 3 -51 13 -61 21 -10 9 -43 18 -80 20 -38 3 -69 11
-81 21 -14 13 -44 16 -150 18 -72 1 -138 0 -146 -4z"/>
<path d="M21330 18383 c-8 -3 -22 -11 -30 -18 -9 -7 -50 -15 -96 -17 -57 -2
-88 -8 -100 -19 -11 -9 -38 -19 -62 -22 -24 -3 -51 -12 -61 -21 -10 -9 -25
-16 -34 -16 -9 0 -35 -18 -59 -40 -24 -22 -51 -40 -61 -40 -24 0 -287 -262
-287 -285 0 -9 -9 -28 -20 -42 -11 -14 -20 -32 -20 -40 0 -8 -9 -26 -20 -40
-11 -14 -20 -33 -20 -41 0 -9 -7 -23 -16 -33 -9 -10 -18 -37 -21 -61 -3 -24
-13 -51 -22 -62 -14 -15 -16 -50 -16 -241 0 -198 2 -225 18 -242 9 -11 17 -26
17 -35 0 -8 9 -27 20 -41 11 -14 20 -32 20 -40 0 -8 9 -26 20 -40 11 -14 20
-33 20 -42 0 -23 144 -165 167 -165 10 0 35 -16 56 -36 26 -26 48 -37 79 -41
24 -3 54 -14 67 -24 13 -11 31 -19 39 -19 9 0 24 -8 35 -17 17 -16 45 -18 262
-18 210 0 245 2 261 16 11 9 38 19 62 22 24 3 51 12 60 20 9 8 36 17 60 20 24
3 51 12 60 20 9 8 36 17 60 20 35 4 53 15 99 61 31 31 66 56 76 56 26 0 207
181 207 206 0 10 18 38 40 62 22 24 40 50 40 59 0 9 7 24 16 34 9 10 18 37 21
61 3 24 13 51 22 62 11 12 17 43 19 100 3 57 9 86 21 100 9 11 16 35 16 61 0
26 -7 50 -16 61 -12 14 -18 43 -21 100 -2 60 -8 87 -21 101 -21 23 -24 119 -4
126 6 2 8 8 4 13 -4 5 -12 2 -17 -5 -11 -19 -40 -6 -40 18 0 11 -18 39 -40 63
-22 24 -40 51 -40 61 0 23 -64 87 -87 87 -10 0 -37 18 -61 40 -24 22 -50 40
-59 40 -9 0 -24 7 -34 16 -10 9 -37 18 -61 21 -24 3 -51 13 -62 22 -13 12 -44
17 -120 19 -76 3 -105 8 -120 20 -13 13 -41 18 -110 19 -50 1 -98 0 -106 -4z"/>
<path d="M12520 18145 l-34 -35 -1007 0 c-879 0 -1008 2 -1019 15 -16 20 -30
10 -30 -22 0 -17 15 -41 46 -72 l46 -46 177 -3 c203 -3 211 -4 186 -32 -22
-24 -12 -40 24 -40 23 0 30 6 37 33 l10 32 163 3 c145 2 166 0 183 -15 l20
-18 301 -3 c268 -3 303 -5 320 -20 17 -15 52 -17 300 -20 249 -3 284 -5 300
-20 17 -15 50 -17 260 -20 211 -3 244 -5 260 -20 17 -15 51 -17 280 -20 230
-3 264 -5 280 -20 17 -15 52 -17 300 -20 249 -3 284 -5 300 -20 17 -15 55 -17
360 -20 306 -2 343 -5 360 -20 17 -15 50 -17 280 -20 230 -3 264 -5 280 -20
l19 -17 384 0 384 0 30 33 c16 18 30 40 30 49 0 8 9 26 20 40 11 14 20 32 20
40 0 8 9 26 20 40 11 14 20 32 20 40 0 8 9 26 20 40 11 14 20 34 20 43 0 10 7
23 15 30 8 7 15 27 15 45 0 39 -14 45 -111 45 -47 0 -70 4 -79 15 -16 19 -74
19 -90 0 -11 -13 -193 -15 -1558 -13 l-1546 3 -10 33 c-7 26 -14 32 -37 32
-35 0 -46 -16 -25 -39 9 -10 13 -21 9 -24 -13 -14 -96 -7 -114 9 -14 12 -21
13 -37 3 -16 -10 -24 -9 -43 4 -13 10 -33 17 -45 17 -12 0 -27 7 -34 15 -16
19 -40 3 -40 -26 0 -11 -7 -19 -15 -19 -8 0 -15 8 -15 19 0 26 -23 44 -38 29
-7 -7 -12 -20 -12 -30 0 -30 -27 -20 -33 12 -6 26 -11 30 -39 30 -24 -1 -42
-10 -68 -35z"/>
<path d="M15530 17103 c-8 -3 -22 -12 -30 -19 -12 -10 -84 -14 -317 -16 -268
-3 -303 -5 -320 -20 l-19 -18 -561 -2 -561 -3 -19 -17 -19 -18 -641 -2 -641
-3 -19 -17 c-13 -12 -46 -20 -101 -25 -91 -9 -108 -24 -36 -35 26 -4 51 -14
59 -25 l13 -18 229 -3 c182 -3 231 -6 244 -18 14 -13 18 -13 29 1 18 21 98 20
123 -2 17 -16 48 -18 280 -21 230 -3 264 -5 280 -20 17 -15 53 -17 320 -20
268 -3 303 -5 320 -20 17 -15 49 -17 240 -20 192 -3 224 -5 240 -20 17 -15 53
-17 300 -20 249 -3 284 -5 300 -20 17 -15 53 -17 320 -20 268 -3 303 -5 320
-20 17 -15 51 -17 285 -20 221 -2 269 -6 283 -18 21 -19 30 -7 32 45 1 25 -5
47 -16 59 -9 10 -17 26 -17 35 0 9 -18 35 -39 58 -29 32 -40 53 -44 86 -2 24
-12 52 -21 62 -9 10 -16 25 -16 34 0 10 -23 41 -51 70 l-50 52 -332 2 c-183 1
-339 -1 -347 -4z"/>
</g>
</svg>
