<?xml version="1.0" standalone="no"?>
<!DOCTYPE svg PUBLIC "-//W3C//DTD SVG 20010904//EN"
 "http://www.w3.org/TR/2001/REC-SVG-20010904/DTD/svg10.dtd">
<svg version="1.0" xmlns="http://www.w3.org/2000/svg"
 width="4282.381492pt" height="900.213788pt" viewBox="0 0 4282.381492 900.213788"
 preserveAspectRatio="xMidYMid meet">
<metadata>
Created by potrace 1.16, written by Peter Selinger 2001-2019
</metadata>
<g transform="translate(-908.118508,2558.713788) scale(0.100000,-0.100000)"
fill="#000000" stroke="none">
<path d="M12724 25580 c-12 -5 -25 -13 -29 -19 -9 -15 -72 -14 -78 2 -2 7 -8
8 -13 3 -5 -5 -4 -11 4 -13 24 -9 11 -30 -64 -106 -65 -66 -77 -83 -81 -119
-3 -24 -13 -51 -22 -62 -12 -13 -16 -39 -16 -101 0 -62 4 -88 16 -101 9 -11
19 -38 22 -62 4 -31 15 -52 41 -79 38 -40 42 -48 26 -58 -5 -3 -10 -13 -10
-21 0 -17 27 -19 33 -1 2 7 8 8 13 3 5 -5 4 -11 -3 -13 -16 -6 -17 -29 -2 -39
7 -4 16 1 21 10 12 21 56 21 81 -1 l19 -18 1006 -3 1006 -2 18 -17 c14 -13 21
-14 30 -5 34 34 55 -23 22 -60 l-17 -18 19 -6 c11 -3 25 -8 32 -10 23 -7 72 8
72 23 0 10 9 13 32 11 25 -2 33 -9 39 -31 4 -15 23 -44 42 -63 26 -27 36 -47
40 -80 2 -25 11 -53 20 -62 8 -10 17 -44 19 -79 3 -37 11 -69 20 -80 11 -12
17 -43 20 -99 2 -60 8 -87 21 -101 24 -27 25 -158 1 -167 -10 -4 -14 -15 -12
-33 4 -36 20 -33 33 6 15 48 29 31 36 -42 3 -39 12 -74 21 -84 9 -11 17 -44
20 -80 3 -39 10 -69 21 -81 21 -23 25 -158 5 -165 -7 -2 -9 -8 -5 -13 4 -5 12
-2 17 5 4 8 15 11 24 8 14 -6 16 -29 16 -171 0 -166 -5 -191 -36 -165 -19 16
-31 4 -15 -15 19 -22 7 -33 -44 -38 -25 -3 -54 -13 -64 -22 l-17 -16 -1381 -2
-1381 -3 -19 -17 c-13 -12 -36 -18 -65 -18 -36 0 -49 -5 -61 -22 -8 -13 -38
-47 -66 -75 -28 -29 -51 -60 -51 -69 0 -9 -9 -27 -20 -41 -11 -14 -20 -34 -20
-43 0 -10 -7 -23 -15 -30 -19 -16 -20 -74 -1 -89 8 -7 15 -38 18 -76 2 -41 10
-70 21 -83 9 -10 17 -26 17 -36 0 -22 103 -126 125 -126 9 0 28 -9 42 -20 14
-11 33 -20 41 -20 9 0 24 -8 35 -17 15 -15 42 -19 144 -21 l125 -4 14 -34 c8
-19 16 -34 19 -34 3 0 11 16 19 35 l15 35 604 0 c332 0 607 -3 610 -7 4 -3 0
-14 -9 -24 -21 -23 -10 -39 25 -39 23 0 30 6 37 33 l10 32 407 3 c358 2 407 0
407 -13 0 -10 -10 -15 -33 -15 -39 0 -82 -25 -57 -33 8 -3 39 -8 69 -11 30 -3
61 -12 71 -21 29 -26 73 -19 99 16 l23 31 -17 19 c-15 15 -15 20 -4 24 27 10
534 1 532 -10 -1 -5 -19 -12 -40 -15 -75 -11 -82 -40 -9 -40 49 0 66 -13 66
-51 0 -21 6 -28 33 -35 l32 -10 3 -43 c4 -52 -7 -68 -36 -50 -12 7 -25 10 -29
5 -4 -4 0 -12 10 -17 32 -18 21 -62 -28 -110 l-45 -44 -3024 -5 -3024 -5 -19
-17 c-11 -10 -27 -18 -37 -18 -9 0 -58 -40 -107 -89 -81 -79 -91 -94 -96 -133
-3 -24 -13 -51 -22 -62 -22 -25 -22 -137 0 -162 9 -11 19 -38 22 -62 4 -31 15
-52 40 -78 19 -20 38 -49 41 -65 4 -21 13 -30 33 -35 15 -4 36 -14 46 -22 10
-9 43 -18 80 -20 38 -3 69 -11 81 -21 16 -14 74 -16 547 -19 474 -2 534 -1
565 14 27 13 37 14 49 4 11 -9 19 -8 37 4 29 21 57 20 81 -1 17 -16 46 -18
228 -21 179 -3 214 -1 244 14 28 13 38 14 50 4 12 -10 20 -9 40 4 13 9 31 16
40 16 9 0 27 -7 40 -16 20 -13 28 -14 40 -4 12 10 22 9 49 -4 19 -9 51 -16 71
-16 20 0 52 7 71 16 28 13 37 14 49 4 13 -10 19 -10 33 4 25 22 100 21 125 -1
12 -11 35 -18 62 -18 27 0 50 7 62 18 25 22 134 24 153 2 20 -24 74 -29 112
-11 l34 16 33 -16 c45 -22 200 -17 228 9 14 12 36 17 78 17 42 0 64 -5 78 -17
16 -15 38 -18 122 -18 84 0 106 3 122 18 24 21 56 22 73 2 15 -18 71 -20 87
-4 9 9 21 8 46 -5 43 -20 64 -20 101 -1 l29 16 35 -17 c46 -21 162 -16 190 9
27 24 207 25 234 1 26 -25 108 -30 150 -10 l35 17 29 -16 c41 -21 218 -21 259
1 24 12 34 13 52 3 18 -9 26 -9 38 1 12 10 22 9 51 -5 44 -21 125 -16 152 9
26 23 178 23 204 -1 l18 -16 18 16 18 17 17 -17 16 -17 19 17 c26 24 233 25
252 2 12 -14 15 -14 30 0 24 22 262 22 280 0 7 -8 27 -15 45 -15 18 0 38 7 45
15 7 8 23 15 37 15 13 0 26 -7 29 -15 7 -18 35 -20 51 -4 9 9 21 8 46 -5 27
-12 65 -16 164 -16 l129 0 47 -47 47 -47 0 -101 0 -102 -64 -64 -65 -64 -1784
-5 -1785 -5 -18 -16 c-11 -9 -39 -19 -64 -22 -24 -3 -49 -12 -55 -19 -6 -7
-23 -24 -37 -37 -23 -20 -30 -22 -43 -11 -20 16 -32 5 -15 -14 10 -13 8 -20
-9 -42 -12 -15 -21 -34 -21 -42 0 -9 -7 -23 -16 -33 -9 -10 -19 -39 -21 -63
-3 -25 -12 -51 -19 -57 -18 -15 -18 -73 0 -88 8 -7 15 -38 18 -75 l4 -64 88
-89 88 -88 1800 -3 1800 -2 25 -20 c14 -11 33 -20 43 -20 9 0 37 -21 62 -46
37 -37 46 -54 51 -90 2 -25 12 -53 21 -63 9 -10 16 -24 16 -33 0 -8 8 -26 19
-39 10 -13 21 -43 24 -67 3 -24 12 -51 21 -61 19 -21 21 -77 4 -84 -7 -2 -9
-8 -5 -13 4 -5 12 -2 17 5 4 8 15 11 24 8 21 -8 21 -60 0 -77 -16 -14 -16 -59
1 -63 6 -1 14 13 20 31 10 37 28 37 33 1 2 -13 22 -42 43 -63 21 -22 39 -48
39 -58 0 -10 27 -46 59 -79 33 -35 62 -74 65 -91 4 -21 13 -30 34 -34 15 -3
47 -23 70 -45 24 -21 50 -39 58 -39 9 0 27 -9 41 -20 14 -11 32 -20 40 -20 8
0 26 -9 40 -20 14 -11 33 -20 41 -20 9 0 24 -8 34 -17 12 -11 42 -18 81 -21
38 -3 69 -11 81 -21 15 -13 48 -17 181 -19 127 -3 166 -7 176 -18 15 -19 73
-18 89 1 18 22 222 22 240 0 12 -14 15 -14 30 0 14 13 56 15 260 15 218 0 245
-2 263 -17 12 -11 35 -18 62 -18 27 0 50 7 62 18 l20 17 420 0 c362 0 422 -2
433 -15 7 -8 27 -15 45 -15 18 0 38 7 45 15 18 22 262 22 280 0 12 -14 15 -14
30 0 25 22 541 23 560 0 7 -8 27 -15 45 -15 18 0 38 7 45 15 18 22 262 22 280
0 12 -14 15 -14 30 0 13 12 44 15 147 15 105 0 133 -3 143 -15 12 -14 15 -14
30 0 25 23 177 21 203 -2 12 -11 35 -18 62 -18 27 0 50 7 62 18 18 15 45 17
258 17 213 0 240 -2 258 -17 15 -14 37 -18 102 -18 65 0 87 4 102 18 26 22
100 23 125 0 l18 -16 18 16 18 17 17 -17 16 -17 19 17 c27 25 177 24 205 0 14
-13 36 -18 82 -18 46 0 68 5 82 18 17 14 41 17 165 17 118 0 148 -3 158 -15
12 -14 15 -14 30 0 23 21 98 20 123 -2 25 -23 98 -24 123 -1 15 13 45 17 140
20 95 2 126 7 140 19 11 9 39 19 63 22 35 4 52 14 92 56 27 28 49 58 49 68 0
9 7 25 16 35 10 10 19 40 22 68 2 27 11 55 19 61 11 10 11 14 -1 28 -8 9 -16
45 -18 83 l-4 66 -67 67 c-56 57 -73 68 -109 72 -24 3 -51 13 -62 22 l-18 16
-3103 3 -3102 2 -86 87 c-48 47 -87 94 -87 103 0 10 -9 29 -20 43 -11 14 -20
32 -20 40 0 8 -9 26 -20 40 -24 30 -26 65 -5 73 25 10 17 35 -15 47 -35 13
-38 27 -9 53 16 15 24 16 39 6 20 -12 50 -7 50 9 0 5 1322 10 3149 11 l3149 3
18 16 c11 9 38 19 62 22 24 3 51 12 61 21 10 9 25 16 34 16 9 0 35 18 59 40
24 22 51 40 62 40 24 0 235 208 243 240 3 14 14 36 25 49 10 13 18 31 18 39 0
9 7 23 16 33 9 10 18 37 21 61 3 24 14 54 24 67 11 13 19 31 19 39 0 9 7 23
16 33 9 10 18 37 21 61 3 24 12 51 20 60 8 9 17 36 20 60 3 24 12 51 20 60 8
9 17 36 20 60 3 24 12 51 20 60 8 9 17 36 20 60 3 24 12 51 20 60 8 9 17 36
20 60 3 24 12 51 20 60 8 9 17 36 20 60 3 24 12 51 20 60 8 9 17 36 20 60 3
24 12 51 20 60 8 9 17 36 20 60 3 24 13 51 21 61 9 10 18 44 20 80 3 40 11 71
23 86 11 13 19 31 19 39 0 9 7 23 16 33 9 10 18 37 21 61 3 24 12 51 20 60 8
9 17 36 20 60 3 24 13 51 21 61 9 10 18 43 20 80 2 35 11 69 19 79 8 9 17 36
20 60 3 24 12 51 20 60 8 9 17 36 20 60 3 24 14 54 24 67 11 13 19 31 19 39 0
9 8 24 17 34 11 12 18 42 21 81 2 35 11 69 19 79 8 9 17 36 20 60 3 24 12 51
20 60 8 9 17 36 20 60 3 24 12 51 20 60 8 9 17 36 20 60 3 24 12 51 20 60 8 9
17 36 20 60 3 24 12 51 20 60 8 9 17 36 20 60 3 24 12 51 20 60 8 9 17 36 20
60 3 24 13 51 22 62 11 12 17 43 19 100 3 57 9 86 21 100 23 26 23 176 -1 202
-12 14 -17 44 -20 120 l-3 101 -37 39 c-21 21 -38 46 -38 55 0 9 -9 28 -20 42
-11 14 -20 32 -20 41 0 8 -18 34 -40 58 -22 24 -40 51 -40 61 0 23 -64 87 -87
87 -10 0 -46 27 -81 60 -34 33 -70 60 -79 60 -9 0 -24 7 -34 16 -10 9 -37 18
-61 21 -24 3 -51 12 -60 20 -9 8 -36 17 -60 20 -24 3 -51 13 -62 22 -15 13
-49 17 -185 19 -128 3 -170 7 -182 18 -14 13 -18 13 -29 -1 -8 -10 -30 -15
-65 -15 -35 0 -57 5 -65 15 -12 14 -15 14 -30 0 -10 -9 -36 -15 -67 -15 -33 0
-55 5 -63 15 -12 14 -15 14 -30 0 -13 -12 -44 -15 -147 -15 -105 0 -133 3
-143 15 -12 14 -15 14 -30 0 -13 -12 -44 -15 -147 -15 -105 0 -133 3 -143 15
-12 14 -15 14 -30 0 -25 -22 -186 -21 -212 2 l-18 16 -18 -16 -18 -17 -17 17
-16 17 -19 -17 c-26 -24 -273 -25 -292 -2 -12 14 -15 14 -30 0 -9 -8 -30 -15
-47 -15 -17 0 -36 7 -43 15 -12 14 -15 14 -30 0 -22 -20 -69 -19 -92 2 l-18
16 -18 -16 -18 -17 -17 17 -16 17 -19 -17 c-17 -15 -53 -17 -344 -17 -275 0
-327 2 -338 15 -20 24 -74 29 -113 10 -29 -14 -39 -14 -55 -4 -18 11 -24 10
-40 -4 l-18 -17 -17 17 -16 17 -19 -17 c-23 -21 -65 -22 -82 -2 -15 18 -71 20
-88 3 -10 -10 -17 -10 -33 0 -16 10 -24 10 -42 -3 -28 -20 -56 -19 -80 3 -16
15 -45 17 -205 20 -147 3 -190 6 -203 18 -14 13 -18 13 -29 -1 -10 -11 -34
-15 -107 -15 -67 0 -105 -5 -130 -16 -25 -13 -37 -14 -46 -5 -16 16 -72 14
-87 -4 -17 -21 -89 -19 -113 3 -17 15 -47 17 -248 20 -197 3 -234 1 -264 -14
-29 -13 -38 -14 -50 -4 -12 10 -20 10 -38 1 -18 -10 -28 -9 -52 3 -39 20 -141
21 -179 1 l-29 -16 -35 17 c-38 18 -92 13 -112 -11 -17 -20 -49 -19 -73 3
l-19 17 -369 3 c-319 2 -374 1 -403 -13 -29 -14 -35 -14 -62 0 -21 11 -61 15
-145 15 -92 0 -119 3 -129 15 -12 14 -15 14 -30 0 -14 -13 -79 -15 -479 -15
l-463 0 -25 20 c-14 11 -34 20 -45 20 -23 0 -36 29 -17 40 7 5 10 13 5 17 -5
4 -11 2 -13 -4 -3 -7 -19 -13 -36 -13 -63 0 -117 92 -70 119 10 5 14 13 10 17
-4 5 -17 3 -28 -4 -28 -18 -36 -9 -41 43 -3 25 -13 54 -22 64 -9 10 -16 24
-16 33 0 8 -9 27 -20 41 -11 14 -20 32 -20 40 0 8 -9 26 -20 40 -11 14 -20 32
-20 41 0 8 -18 34 -40 58 -22 24 -40 51 -40 61 0 10 -26 44 -57 76 -107 108
-107 109 -93 126 17 20 5 32 -15 15 -13 -11 -20 -9 -43 11 -14 13 -31 30 -37
37 -6 7 -31 16 -55 19 -25 3 -53 12 -62 20 -9 8 -36 17 -60 20 -24 3 -51 13
-62 22 l-18 16 -1332 2 c-739 1 -1341 -2 -1352 -7z"/>
<path d="M26610 24463 c-8 -3 -26 -17 -40 -31 -22 -21 -25 -35 -28 -106 -3
-57 -9 -86 -21 -100 -13 -15 -17 -47 -19 -180 -3 -134 -6 -164 -20 -180 -13
-14 -18 -42 -20 -120 -3 -76 -8 -105 -20 -120 -13 -14 -18 -44 -20 -140 -3
-95 -7 -125 -20 -140 -14 -14 -18 -44 -20 -140 -3 -95 -7 -125 -20 -140 -13
-14 -18 -42 -20 -120 -3 -76 -8 -105 -20 -120 -13 -14 -18 -44 -20 -140 -3
-95 -7 -125 -20 -140 -14 -14 -18 -44 -20 -140 -3 -95 -7 -125 -20 -140 -13
-14 -18 -42 -20 -120 -3 -76 -8 -105 -20 -120 -14 -15 -18 -45 -20 -163 -3
-118 -6 -145 -19 -150 -8 -3 -19 0 -23 8 -5 7 -13 10 -17 5 -4 -5 -2 -11 5
-13 8 -3 12 -36 12 -116 0 -91 -3 -114 -17 -130 -14 -15 -19 -41 -21 -124 -3
-81 -7 -106 -19 -110 -8 -3 -19 0 -23 8 -5 7 -13 10 -17 5 -4 -5 -2 -11 5 -13
9 -4 12 -48 12 -176 0 -148 -2 -173 -17 -190 -15 -15 -19 -42 -21 -141 -3 -95
-7 -125 -20 -140 -14 -14 -18 -44 -20 -140 -3 -95 -7 -125 -20 -140 -14 -14
-18 -44 -20 -140 -3 -95 -7 -125 -20 -140 -13 -14 -18 -42 -20 -120 -3 -76 -8
-105 -20 -120 -13 -14 -18 -44 -20 -140 -3 -95 -7 -125 -20 -140 -14 -14 -18
-44 -20 -140 -3 -95 -7 -125 -20 -140 -14 -15 -18 -45 -20 -160 -3 -115 -7
-144 -20 -160 -14 -15 -17 -40 -17 -137 0 -129 9 -156 43 -126 l18 17 17 -17
c14 -14 20 -15 40 -4 18 10 28 9 52 -3 44 -23 492 -23 539 -1 29 14 36 14 62
0 23 -12 71 -15 245 -15 182 0 219 -2 229 -15 11 -14 15 -14 29 -1 12 11 54
15 182 18 142 3 170 6 186 21 26 22 90 22 116 0 25 -23 98 -24 123 -1 16 13
45 17 160 20 115 2 146 6 160 20 15 12 44 17 120 20 76 2 107 7 120 19 11 9
38 19 62 22 24 3 51 12 60 20 9 8 36 17 60 20 24 3 51 12 61 21 10 9 24 16 33
16 8 0 27 9 41 20 14 11 32 20 40 20 8 0 26 9 40 20 14 11 32 20 40 20 8 0 26
9 40 20 14 11 32 20 40 20 8 0 26 9 40 20 14 11 32 20 40 20 8 0 26 9 40 20
28 22 83 27 90 8 2 -8 8 -9 13 -4 5 5 4 11 -3 13 -7 3 -13 10 -13 17 0 19 92
103 120 109 33 8 400 377 400 403 0 10 27 47 60 82 33 34 60 69 60 78 0 9 9
27 20 41 11 14 20 33 20 42 0 9 18 35 40 59 22 24 40 50 40 58 0 9 9 27 20 41
11 14 20 33 20 41 0 9 7 23 16 33 9 10 18 37 21 61 3 24 14 54 24 67 11 13 19
31 19 39 0 9 7 23 16 33 9 10 18 37 21 61 3 24 13 51 21 61 9 10 18 43 20 80
3 37 11 69 20 80 9 10 18 43 20 80 3 38 11 69 21 81 13 14 17 46 19 160 3 115
7 144 20 160 15 16 17 54 17 361 0 304 -2 345 -16 361 -12 14 -18 43 -21 100
-2 57 -8 88 -19 100 -9 11 -19 38 -22 62 -3 24 -12 51 -21 61 -9 10 -16 24
-16 33 0 8 -9 27 -20 41 -11 14 -20 32 -20 40 0 8 -9 26 -20 40 -11 14 -20 32
-20 41 0 9 -8 24 -17 34 -63 66 -66 71 -53 87 17 20 5 32 -15 15 -14 -12 -23
-6 -67 38 -44 44 -50 53 -38 67 16 20 5 32 -14 15 -13 -10 -20 -8 -42 9 -15
12 -34 21 -43 21 -9 0 -35 18 -59 40 -24 22 -51 40 -62 40 -34 0 -32 20 4 57
39 41 38 53 -4 53 -25 0 -29 -4 -32 -32 -3 -29 -7 -33 -35 -36 -29 -3 -34 1
-48 34 l-15 37 -18 -17 c-26 -23 -97 -21 -129 4 -14 11 -33 20 -41 20 -9 0
-24 8 -35 18 -16 15 -45 17 -200 20 -154 3 -185 6 -200 20 -27 24 -177 24
-203 0 -16 -14 -46 -17 -180 -20 -134 -2 -165 -6 -180 -20 -15 -12 -44 -17
-120 -20 -80 -2 -106 -7 -121 -20 -16 -14 -38 -18 -106 -18 -47 0 -89 5 -92
10 -4 6 -22 17 -41 25 -39 16 -45 46 -17 78 13 14 19 41 21 101 3 57 9 86 21
100 12 14 17 44 19 140 3 95 7 125 20 140 14 14 18 44 20 140 3 95 7 125 20
140 14 14 18 44 20 140 3 95 7 125 20 140 13 14 18 42 20 120 3 76 8 105 20
120 13 14 18 43 20 120 3 76 8 106 20 120 10 11 17 35 17 61 0 34 -6 49 -29
71 l-28 29 -572 2 c-314 1 -578 -1 -586 -4z m1010 -1812 c0 -12 -37 -24 -50
-16 -20 12 -10 25 20 25 17 0 30 -4 30 -9z m405 -947 l15 -36 24 15 23 16 16
-17 16 -16 19 17 c28 25 136 23 169 -3 14 -11 32 -20 40 -20 8 0 26 -9 40 -20
14 -11 33 -20 42 -20 16 -1 47 -25 90 -73 l24 -26 -36 -37 c-40 -42 -40 -54 3
-54 25 0 30 5 36 35 3 19 9 35 13 35 4 0 27 -21 53 -47 36 -38 47 -57 51 -91
3 -24 12 -51 20 -60 8 -10 17 -44 19 -79 3 -39 10 -69 21 -81 14 -16 17 -42
17 -177 0 -137 -2 -161 -17 -178 -14 -15 -19 -41 -21 -121 -3 -75 -8 -106 -20
-119 -9 -11 -18 -43 -20 -80 -3 -40 -11 -71 -23 -86 -11 -13 -19 -30 -19 -38
0 -8 -9 -26 -20 -40 -11 -14 -20 -32 -20 -40 0 -8 -9 -26 -20 -40 -11 -14 -20
-33 -20 -42 0 -9 -18 -35 -40 -59 -22 -24 -40 -51 -40 -61 0 -23 -168 -191
-191 -191 -10 0 -37 -18 -61 -40 -24 -22 -50 -40 -59 -40 -9 0 -28 -9 -42 -20
-28 -22 -83 -27 -90 -7 -2 6 -8 8 -13 4 -5 -4 -2 -12 5 -17 19 -11 6 -40 -17
-40 -11 0 -30 -8 -43 -19 -15 -12 -46 -20 -86 -23 -39 -3 -69 -10 -81 -21 -16
-14 -42 -17 -166 -17 -116 0 -155 -4 -182 -16 -27 -13 -37 -14 -49 -4 -12 10
-20 9 -40 -4 -32 -21 -51 -20 -82 4 -14 11 -35 20 -46 20 -11 0 -29 8 -39 17
-14 13 -21 14 -30 5 -31 -31 -38 -13 -38 90 0 83 3 105 18 121 13 15 18 41 20
121 3 76 8 105 20 120 13 14 18 44 20 140 3 95 7 125 20 140 14 14 18 44 20
140 3 95 7 125 20 140 14 14 18 44 20 140 3 95 7 125 20 140 13 14 18 42 20
120 3 76 8 105 20 120 14 14 18 44 20 143 3 98 7 125 18 130 8 3 21 -2 28 -12
9 -13 15 -15 20 -6 4 6 0 14 -8 17 -13 5 -16 24 -16 98 l0 92 28 27 28 27 124
0 c101 0 127 -3 142 -17 l18 -16 12 31 c12 32 31 41 43 22 9 -15 42 -12 49 5
4 12 24 15 91 15 l85 0 15 -36z"/>
<path d="M30970 24463 c-23 -9 -70 -62 -70 -80 0 -9 -8 -25 -17 -36 -14 -15
-19 -41 -21 -121 -3 -76 -8 -105 -20 -120 -14 -14 -18 -45 -20 -160 -3 -114
-7 -145 -20 -159 -12 -13 -18 -44 -22 -105 -5 -90 -19 -114 -35 -60 -6 18 -14
32 -20 31 -17 -4 -17 -49 -1 -63 20 -16 21 -64 1 -80 -15 -12 -21 -61 -9 -73
4 -3 15 -2 26 4 15 8 28 6 53 -5 18 -9 47 -16 64 -16 34 0 54 -26 30 -40 -7
-5 -10 -13 -5 -17 5 -4 11 -2 13 5 3 6 15 12 28 12 13 0 25 -6 28 -12 2 -7 8
-9 13 -5 5 4 2 12 -5 17 -8 4 -11 15 -8 24 5 14 61 16 490 18 l485 3 27 27
c18 18 29 42 32 70 3 24 13 51 22 62 12 13 17 44 19 120 3 76 8 105 20 120 13
14 18 44 20 140 3 95 7 125 20 140 12 13 18 42 21 102 2 55 8 87 17 95 24 19
17 71 -14 99 -65 60 -71 64 -87 50 -12 -10 -21 -9 -49 4 -30 14 -91 16 -513
15 -263 0 -485 -3 -493 -6z"/>
<path d="M48604 24460 c-12 -5 -25 -13 -28 -19 -3 -5 -19 -12 -35 -16 -21 -4
-31 -14 -36 -33 -4 -15 -14 -35 -23 -46 -14 -15 -18 -45 -20 -160 -3 -115 -7
-144 -20 -160 -14 -15 -18 -44 -20 -160 -3 -115 -7 -144 -20 -160 -14 -14 -18
-43 -20 -140 -3 -95 -7 -125 -20 -140 -14 -14 -18 -44 -20 -140 -3 -95 -7
-125 -20 -140 -14 -14 -18 -44 -20 -140 -3 -95 -7 -125 -20 -140 -14 -15 -18
-45 -20 -160 -3 -115 -7 -144 -20 -160 -14 -14 -18 -43 -20 -140 -3 -95 -7
-125 -20 -140 -14 -14 -18 -44 -20 -140 -3 -95 -7 -125 -20 -140 -14 -14 -18
-44 -20 -140 -3 -95 -7 -125 -20 -140 -14 -14 -18 -44 -20 -140 -3 -95 -7
-125 -20 -140 -14 -14 -18 -47 -22 -164 -5 -146 -16 -184 -35 -120 -6 18 -14
33 -20 33 -17 0 -17 -51 -1 -65 25 -20 23 -256 -1 -283 -15 -16 -19 -43 -21
-161 -3 -115 -7 -144 -20 -160 -13 -14 -18 -42 -20 -120 -3 -76 -8 -105 -20
-120 -13 -14 -18 -43 -20 -120 -3 -76 -8 -105 -20 -120 -14 -14 -18 -45 -20
-160 -3 -115 -7 -144 -20 -160 -14 -14 -18 -43 -20 -140 -3 -95 -7 -125 -20
-140 -14 -14 -18 -44 -20 -140 -3 -95 -7 -125 -20 -140 -14 -14 -18 -44 -20
-140 -3 -95 -7 -125 -20 -140 -13 -14 -18 -43 -20 -129 -3 -84 -8 -114 -19
-122 -23 -17 -13 -59 16 -63 33 -5 51 15 29 32 -43 32 -21 36 196 36 179 0
216 -2 226 -15 12 -14 15 -14 30 0 14 13 65 15 346 15 181 0 339 3 352 6 13 4
25 17 28 33 4 14 14 34 23 45 12 14 17 45 19 140 3 95 7 125 20 140 14 15 18
45 20 160 3 115 7 144 20 160 14 15 18 44 20 160 3 115 7 144 20 160 14 14 18
43 20 140 3 95 7 125 20 140 14 14 18 44 20 140 3 95 7 125 20 140 14 14 18
44 20 140 3 95 7 125 20 140 14 14 18 44 20 140 3 95 7 125 20 140 14 14 18
44 20 140 3 95 7 125 20 140 14 14 18 44 20 140 3 95 7 125 20 140 12 13 18
42 20 101 l4 84 64 64 c56 56 71 65 110 70 25 2 53 11 62 20 9 8 36 17 60 20
24 3 51 12 60 20 10 8 44 17 79 19 39 3 69 10 81 21 16 15 47 17 257 17 206 0
241 -2 256 -16 10 -9 38 -19 63 -21 39 -5 54 -14 111 -71 36 -36 65 -73 65
-82 0 -10 8 -28 19 -41 12 -15 20 -46 23 -86 3 -39 10 -69 21 -81 25 -28 25
-207 0 -235 -15 -15 -19 -42 -21 -141 -3 -95 -7 -125 -20 -140 -14 -15 -18
-46 -20 -180 -3 -134 -6 -164 -20 -180 -14 -14 -18 -43 -20 -140 -3 -95 -7
-125 -20 -140 -14 -14 -18 -44 -20 -140 -3 -95 -7 -125 -20 -140 -14 -15 -18
-45 -20 -160 -3 -115 -7 -144 -20 -160 -14 -14 -18 -43 -20 -140 -3 -95 -7
-125 -20 -140 -14 -14 -18 -44 -20 -140 -3 -95 -7 -125 -20 -140 -14 -14 -18
-44 -20 -141 -3 -92 -7 -127 -18 -136 -8 -6 -14 -26 -14 -44 0 -27 5 -34 28
-40 15 -3 35 -14 46 -23 l18 -17 523 0 523 0 48 49 49 48 3 122 c3 96 7 125
20 140 14 15 18 45 20 160 3 115 7 144 20 160 14 15 18 44 20 160 3 115 7 144
20 160 14 15 18 44 20 160 3 115 7 144 20 160 14 14 18 43 20 140 3 95 7 125
20 140 13 14 18 42 20 120 3 76 8 105 20 120 14 15 18 46 20 180 3 134 6 164
20 180 14 14 18 43 20 140 3 95 7 125 20 140 14 14 18 44 20 140 3 95 7 125
20 140 15 16 17 47 17 241 0 193 -2 225 -16 241 -12 14 -18 43 -21 100 -2 60
-8 87 -21 101 -9 11 -17 26 -17 35 0 8 -9 27 -20 41 -23 29 -29 122 -7 130 7
2 8 8 3 13 -5 5 -11 4 -13 -3 -3 -7 -10 -13 -16 -13 -18 0 -67 53 -67 73 0 24
-182 207 -207 207 -10 0 -37 18 -61 40 -24 22 -52 40 -63 40 -24 0 -37 29 -18
40 7 5 10 13 5 17 -5 4 -11 2 -13 -4 -7 -18 -63 -16 -84 3 -10 9 -37 18 -61
21 -24 3 -51 13 -62 22 -13 12 -44 17 -120 19 -76 3 -106 8 -120 20 -16 15
-50 17 -281 17 -231 0 -265 -2 -281 -17 -14 -12 -44 -17 -120 -20 -77 -2 -107
-7 -120 -19 -12 -10 -43 -18 -81 -21 -37 -2 -70 -11 -80 -20 -10 -8 -37 -18
-61 -21 -24 -3 -51 -12 -61 -21 -10 -9 -24 -16 -33 -16 -8 0 -26 -8 -39 -19
-13 -10 -43 -21 -67 -24 -31 -4 -53 -15 -79 -41 -21 -20 -45 -36 -53 -36 -9 0
-25 -7 -36 -15 -40 -30 -44 -22 -44 107 0 102 3 125 18 141 14 15 18 42 20
141 3 95 7 125 20 140 13 14 18 42 20 120 3 76 8 105 20 120 14 15 18 46 20
180 3 134 6 164 20 180 14 14 18 43 20 140 3 95 7 125 20 140 14 14 18 44 20
140 3 95 7 125 20 140 14 15 17 40 17 137 0 125 -9 155 -40 129 -12 -10 -21
-9 -49 4 -30 14 -92 16 -513 15 -263 0 -488 -4 -499 -9z"/>
<path d="M11204 24340 c-12 -5 -25 -13 -29 -19 -3 -6 -14 -11 -24 -11 -10 0
-30 -9 -44 -20 -14 -11 -32 -20 -41 -20 -9 0 -32 -16 -51 -35 -19 -19 -35 -42
-35 -51 0 -9 -9 -27 -20 -41 -11 -14 -20 -33 -20 -41 0 -9 -8 -24 -17 -35 -15
-16 -18 -39 -18 -142 0 -105 3 -126 18 -143 11 -12 17 -31 15 -49 -2 -22 -9
-29 -30 -31 -16 -2 -28 -9 -28 -18 0 -19 39 -18 62 3 l19 17 46 -45 c25 -24
54 -52 64 -61 11 -10 27 -18 36 -18 9 0 25 -8 36 -17 14 -13 41 -19 101 -21
57 -3 86 -9 100 -21 l18 -16 1083 0 1083 0 19 18 c16 13 38 17 110 17 64 0 93
-4 96 -12 2 -7 8 -9 13 -5 5 4 2 12 -5 17 -20 11 -6 40 19 40 25 0 130 101
130 125 0 9 9 28 20 42 11 14 20 33 20 41 0 9 8 24 18 35 14 16 17 38 17 122
0 84 -3 106 -17 122 -10 11 -18 26 -18 35 0 8 -9 27 -20 41 -11 14 -20 32 -20
41 0 22 -65 86 -87 86 -10 0 -36 17 -57 38 l-39 37 -1251 2 c-694 1 -1261 -2
-1272 -7z"/>
<path d="M46050 22823 c-8 -3 -22 -11 -30 -19 -11 -9 -62 -14 -176 -16 -134
-2 -165 -6 -180 -20 -15 -12 -44 -17 -120 -20 -76 -2 -107 -7 -120 -19 -11 -9
-38 -19 -62 -22 -24 -3 -51 -12 -61 -21 -22 -20 -55 -21 -71 -1 -14 17 -66 20
-76 4 -3 -6 -1 -16 5 -22 25 -25 12 -37 -43 -37 -40 0 -55 4 -60 16 -3 8 -11
12 -17 8 -9 -5 -7 -11 6 -20 21 -16 13 -44 -13 -44 -11 0 -31 -9 -45 -20 -14
-11 -32 -20 -40 -20 -8 0 -26 -9 -40 -20 -14 -11 -32 -20 -40 -20 -8 0 -26 -9
-40 -20 -14 -11 -32 -20 -41 -20 -9 0 -44 -27 -78 -60 -50 -48 -69 -60 -95
-60 -17 0 -33 6 -36 13 -2 7 -8 8 -13 3 -5 -5 -4 -11 4 -13 25 -9 10 -31 -88
-131 -55 -55 -100 -109 -100 -119 0 -10 -18 -37 -40 -61 -22 -24 -40 -50 -40
-58 0 -9 -9 -27 -20 -41 -11 -14 -20 -33 -20 -41 0 -9 -7 -23 -16 -33 -9 -10
-18 -37 -21 -61 -3 -24 -13 -51 -21 -61 -9 -10 -18 -43 -20 -80 -3 -38 -11
-69 -21 -81 -13 -15 -16 -44 -16 -181 0 -137 3 -166 16 -181 10 -12 18 -43 21
-81 3 -39 10 -69 21 -81 9 -10 17 -25 17 -34 0 -8 9 -27 20 -41 11 -14 20 -32
20 -41 0 -8 18 -34 39 -58 22 -23 42 -54 45 -70 4 -20 13 -29 33 -34 38 -9 80
-50 87 -85 4 -22 13 -31 34 -35 15 -3 47 -23 70 -45 24 -21 50 -39 59 -39 20
0 73 -48 73 -66 0 -7 -6 -14 -12 -17 -8 -2 -9 -8 -4 -13 5 -5 11 -4 13 4 7 19
62 14 90 -8 14 -11 33 -20 41 -20 9 0 23 -7 33 -16 10 -9 37 -18 61 -21 24 -3
54 -14 67 -24 13 -11 32 -19 43 -19 23 0 36 -29 17 -40 -7 -5 -10 -13 -5 -17
5 -4 11 -2 13 5 7 17 63 15 84 -4 10 -9 37 -18 61 -21 24 -3 54 -14 67 -24 13
-11 31 -19 39 -19 9 0 23 -7 33 -16 10 -9 37 -18 61 -21 24 -3 51 -12 60 -20
9 -8 36 -17 60 -20 24 -3 54 -14 67 -24 13 -11 32 -19 43 -19 23 0 36 -29 17
-40 -7 -5 -10 -13 -5 -17 5 -4 11 -2 13 5 7 17 63 15 84 -4 10 -9 37 -18 61
-21 24 -3 54 -14 67 -24 13 -11 30 -19 38 -19 8 0 26 -9 40 -20 14 -11 33 -20
43 -20 9 0 37 -21 63 -47 36 -35 47 -54 47 -77 0 -17 7 -44 15 -60 14 -26 14
-33 0 -62 -8 -18 -15 -45 -15 -60 0 -31 -44 -84 -71 -84 -9 0 -28 -9 -42 -20
-14 -11 -32 -20 -40 -20 -8 0 -25 -8 -38 -19 -13 -10 -43 -21 -67 -24 -24 -3
-51 -12 -61 -21 -25 -23 -262 -23 -281 -1 -12 14 -15 14 -30 0 -26 -23 -216
-22 -243 3 -16 14 -44 17 -181 20 -133 3 -164 6 -180 20 -13 12 -41 18 -100
20 -56 3 -87 9 -99 20 -11 9 -43 18 -80 20 -40 3 -71 11 -86 23 -13 11 -31 19
-39 19 -9 0 -23 7 -33 16 -10 9 -37 18 -61 21 -24 3 -54 14 -67 24 -13 11 -31
19 -39 19 -9 0 -23 7 -33 16 -10 9 -37 18 -61 21 -24 3 -54 14 -67 24 -13 11
-32 19 -41 19 -10 0 -23 6 -29 14 -17 21 -59 27 -111 18 -37 -6 -46 -12 -48
-31 -5 -34 13 -48 36 -28 10 9 22 14 25 10 14 -13 7 -87 -10 -105 -11 -12 -18
-42 -21 -81 -3 -38 -11 -69 -21 -81 -11 -13 -17 -42 -19 -100 -3 -56 -9 -87
-20 -99 -9 -11 -17 -43 -20 -80 -3 -38 -11 -69 -21 -81 -13 -15 -16 -41 -16
-141 0 -68 3 -126 7 -130 3 -4 26 -9 50 -12 24 -3 54 -14 67 -24 13 -11 30
-19 38 -19 8 0 26 -9 40 -20 14 -11 33 -20 41 -20 9 0 23 -7 33 -16 10 -9 37
-18 61 -21 24 -3 51 -13 61 -21 10 -9 43 -18 80 -20 38 -3 69 -11 81 -21 13
-11 42 -17 100 -19 57 -3 86 -9 100 -21 14 -12 43 -17 123 -19 81 -3 106 -7
110 -19 3 -8 0 -19 -8 -23 -7 -5 -10 -12 -6 -17 5 -4 11 -2 15 5 6 8 136 12
519 14 459 3 513 5 529 20 14 12 44 17 120 20 77 2 107 7 120 19 12 10 43 18
81 21 37 2 70 11 80 20 10 8 37 18 61 21 24 3 51 12 61 21 10 9 24 16 33 16 8
0 26 8 39 19 13 10 43 21 67 24 24 3 51 12 61 21 10 9 25 16 34 16 9 0 35 18
59 40 24 22 51 40 60 40 9 0 36 18 60 40 24 22 52 40 62 40 25 0 246 221 246
246 0 10 18 38 40 62 22 24 40 50 40 58 0 9 9 27 20 41 11 14 20 32 20 40 0 8
9 26 20 40 11 14 20 33 20 41 0 9 7 23 16 33 9 10 18 37 21 61 3 24 13 51 22
62 11 12 17 43 19 100 3 57 9 86 21 100 24 27 24 295 0 322 -10 12 -18 43 -21
81 -3 39 -10 69 -21 81 -9 10 -17 25 -17 34 0 8 -9 27 -20 41 -11 14 -20 32
-20 41 0 8 -18 34 -40 58 -22 24 -40 51 -40 61 0 24 -103 127 -127 127 -10 0
-46 27 -81 60 -34 33 -69 60 -78 60 -9 0 -27 9 -41 20 -14 11 -32 20 -40 20
-8 0 -26 9 -40 20 -14 11 -32 20 -40 20 -8 0 -26 9 -40 20 -14 11 -32 20 -40
20 -8 0 -26 9 -40 20 -14 11 -32 20 -40 20 -8 0 -26 9 -40 20 -14 11 -34 20
-45 20 -23 0 -36 29 -17 40 7 5 10 13 5 17 -5 4 -11 2 -13 -4 -7 -19 -102 -17
-124 3 -10 9 -37 18 -61 21 -24 3 -51 12 -60 20 -9 8 -36 17 -60 20 -24 3 -51
12 -60 20 -9 8 -36 17 -60 20 -24 3 -51 12 -60 20 -9 8 -36 17 -60 20 -24 3
-54 14 -67 24 -13 11 -31 19 -41 19 -9 0 -25 9 -34 19 -10 11 -30 21 -45 23
-30 3 -32 21 -2 26 39 6 43 27 11 57 l-29 28 -11 -27 c-5 -15 -10 -32 -10 -37
0 -24 -57 -7 -92 27 -21 19 -50 39 -65 43 -19 5 -29 16 -35 38 -4 17 -15 36
-23 43 -22 18 -19 87 5 117 11 14 20 33 20 43 0 9 21 37 47 63 36 37 54 47 79
47 18 0 34 -6 37 -12 2 -7 8 -9 13 -5 5 4 2 12 -5 17 -26 15 -4 37 44 42 25 3
54 13 63 21 13 12 47 16 138 19 99 2 126 6 141 21 15 13 37 17 98 17 61 0 83
-4 98 -17 16 -16 45 -18 200 -21 154 -3 185 -6 200 -20 15 -13 43 -18 121 -20
72 -3 106 -8 118 -19 9 -8 36 -17 60 -20 24 -3 51 -12 60 -20 9 -8 36 -17 60
-20 24 -3 51 -13 61 -21 10 -9 46 -18 82 -21 56 -5 69 -11 102 -41 31 -29 43
-35 80 -34 24 0 46 3 49 7 3 3 8 25 11 49 3 24 13 51 22 62 11 12 17 43 19
100 3 57 9 86 21 100 12 13 17 43 19 120 3 76 8 105 20 120 13 14 18 43 20
123 3 81 7 106 19 110 8 3 19 0 23 -8 5 -7 13 -10 17 -5 4 5 2 11 -4 13 -7 3
-13 21 -13 41 0 59 -10 82 -39 89 -14 3 -37 14 -50 25 -13 10 -31 18 -39 18
-9 0 -23 7 -33 16 -10 9 -39 19 -64 22 -48 5 -70 27 -44 42 7 5 10 13 5 17 -5
4 -11 2 -13 -4 -7 -20 -102 -17 -125 4 -12 11 -42 18 -81 21 -38 3 -69 11 -81
21 -14 12 -45 17 -140 19 -95 3 -125 7 -140 20 -14 14 -44 18 -141 20 -92 3
-127 7 -136 18 -15 19 -73 18 -89 -1 -17 -20 -49 -19 -73 3 -15 14 -40 17
-131 19 -61 1 -118 0 -126 -4z"/>
<path d="M39170 22783 c-8 -3 -22 -11 -30 -19 -10 -8 -59 -13 -156 -16 -115
-2 -146 -6 -160 -19 -14 -12 -43 -18 -100 -21 -60 -2 -87 -8 -101 -21 -24 -21
-66 -22 -83 -2 -14 17 -95 21 -105 5 -8 -13 37 -30 76 -30 38 0 35 -24 -3 -28
-14 -2 -34 -12 -44 -23 -9 -10 -25 -19 -34 -19 -10 0 -29 -9 -43 -20 -14 -11
-32 -20 -41 -20 -8 0 -34 -18 -58 -40 -24 -22 -51 -40 -60 -40 -9 0 -36 -18
-60 -40 -24 -22 -51 -40 -60 -40 -9 0 -36 -18 -60 -40 -47 -44 -56 -47 -64
-25 -4 8 -12 15 -20 15 -18 0 -18 -9 3 -32 l16 -18 -28 -30 -29 -30 -28 27
c-41 40 -35 74 15 86 26 6 37 14 37 27 0 10 6 20 13 23 6 2 8 8 4 13 -4 5 -12
2 -17 -5 -4 -8 -15 -11 -24 -8 -23 9 -24 208 -1 227 24 20 18 72 -12 100 l-26
25 -542 0 c-486 0 -545 -2 -561 -16 -11 -9 -31 -19 -45 -23 -32 -7 -39 -28
-39 -115 0 -47 -5 -70 -17 -84 -15 -15 -19 -42 -21 -141 -3 -95 -7 -125 -20
-140 -14 -14 -18 -44 -20 -140 -3 -95 -7 -125 -20 -140 -14 -15 -18 -45 -20
-160 -3 -115 -7 -144 -20 -160 -14 -14 -18 -43 -20 -140 -3 -95 -7 -125 -20
-140 -14 -14 -18 -44 -20 -140 -3 -95 -7 -125 -20 -140 -14 -14 -18 -44 -20
-140 -3 -95 -7 -125 -20 -140 -14 -14 -18 -44 -20 -140 -3 -95 -7 -125 -20
-140 -14 -14 -18 -44 -20 -140 -3 -95 -7 -125 -20 -140 -14 -14 -18 -44 -20
-140 -3 -95 -7 -125 -20 -140 -14 -15 -18 -45 -20 -160 -3 -115 -7 -144 -20
-160 -13 -14 -18 -42 -20 -120 -3 -76 -8 -105 -20 -120 -14 -14 -18 -45 -20
-160 -3 -115 -7 -144 -20 -160 -14 -15 -18 -45 -20 -161 -3 -109 -7 -147 -18
-156 -8 -6 -14 -26 -14 -43 0 -37 48 -86 85 -86 12 0 28 -7 35 -15 11 -14 15
-14 29 -1 15 13 90 16 523 18 449 3 508 5 524 19 11 9 31 19 45 23 35 8 39 26
39 175 0 104 3 128 18 144 14 15 18 42 20 141 3 95 7 125 20 140 14 15 18 45
20 160 3 115 7 144 20 160 14 14 18 43 20 140 3 95 7 125 20 140 14 14 18 44
20 140 3 95 7 125 20 140 14 14 18 44 20 140 3 95 7 125 20 140 14 14 18 44
20 140 3 95 7 125 20 140 14 14 18 44 20 140 3 94 7 125 20 139 9 11 18 42 20
80 3 40 11 71 23 86 11 13 19 31 19 40 0 22 169 191 191 191 9 0 28 9 42 20
14 11 32 20 40 20 8 0 26 9 40 20 14 11 32 20 40 20 8 0 26 9 40 20 14 11 32
20 40 20 8 0 25 8 38 19 13 10 43 21 67 24 24 3 51 12 60 20 11 10 45 16 98
19 59 2 87 8 100 20 15 13 45 17 140 20 99 2 126 6 141 21 17 15 43 17 224 17
112 0 214 3 227 6 13 4 25 17 28 33 4 14 14 34 23 45 12 14 17 45 19 140 3 95
7 125 20 140 14 14 18 44 20 140 3 95 7 125 20 140 14 14 18 44 20 140 3 95 7
125 20 140 12 13 17 36 17 81 0 35 -3 66 -7 70 -3 4 -26 9 -50 12 -24 3 -51
13 -62 22 -13 12 -42 17 -110 18 -50 1 -98 0 -106 -4z"/>
<path d="M30730 22743 c-8 -3 -35 -26 -60 -51 l-45 -44 -3 -122 c-3 -96 -7
-125 -20 -140 -13 -14 -18 -42 -20 -120 -3 -76 -8 -105 -20 -120 -13 -14 -18
-44 -20 -140 -3 -95 -7 -125 -20 -140 -14 -15 -18 -45 -20 -160 -3 -115 -7
-144 -20 -160 -13 -14 -18 -45 -22 -144 -3 -88 -9 -127 -17 -130 -10 -3 -13
12 -13 53 0 58 -14 100 -31 90 -16 -10 -11 -131 6 -145 12 -10 15 -39 15 -138
0 -105 -3 -129 -17 -145 -15 -15 -19 -42 -21 -141 -3 -95 -7 -125 -20 -140
-13 -14 -18 -42 -20 -120 -3 -76 -8 -105 -20 -120 -14 -14 -18 -45 -20 -160
-3 -115 -7 -144 -20 -160 -14 -14 -18 -43 -20 -140 -3 -95 -7 -125 -20 -140
-13 -14 -18 -42 -20 -120 -3 -76 -8 -105 -20 -120 -14 -14 -18 -45 -20 -160
-3 -115 -7 -144 -20 -160 -14 -14 -18 -43 -20 -140 -3 -95 -7 -125 -20 -140
-14 -14 -18 -44 -20 -141 -3 -92 -7 -127 -18 -136 -21 -18 -17 -68 9 -95 25
-27 78 -32 97 -9 19 23 167 21 193 -2 15 -14 37 -18 102 -18 65 0 87 4 102 18
12 10 35 17 58 17 23 0 46 -7 58 -17 17 -16 46 -18 282 -18 l263 0 28 29 29
28 3 102 c3 76 8 105 20 120 13 14 18 44 20 140 3 95 7 125 20 140 14 14 18
44 20 140 3 95 7 125 20 140 14 14 18 44 20 140 3 95 7 125 20 140 14 15 18
45 20 160 3 115 7 144 20 160 14 14 18 43 20 140 3 95 7 125 20 140 14 15 18
45 20 160 3 115 7 144 20 160 13 14 18 42 20 120 3 76 8 105 20 120 13 14 18
44 20 140 3 95 7 125 20 140 14 14 18 44 20 140 3 95 7 125 20 140 14 14 18
44 20 140 3 95 7 125 20 140 14 14 18 44 20 140 3 95 7 125 20 140 14 14 18
44 20 140 3 95 7 125 20 140 14 15 18 45 20 161 3 109 7 147 18 156 23 19 17
71 -13 99 l-26 25 -531 2 c-292 1 -538 -1 -546 -4z"/>
<path d="M32528 22743 c-9 -2 -19 -16 -23 -31 -4 -15 -14 -35 -23 -46 -13 -14
-18 -42 -20 -120 -3 -76 -8 -105 -20 -120 -13 -14 -18 -44 -20 -140 -3 -95 -7
-125 -20 -140 -14 -14 -18 -44 -20 -145 -3 -90 -8 -130 -18 -142 -12 -13 -10
-19 16 -47 16 -18 37 -32 46 -32 10 0 26 -8 37 -17 l19 -18 821 -3 c507 -1
825 -6 831 -12 6 -6 3 -16 -7 -28 -16 -17 -16 -20 -2 -32 8 -7 15 -15 15 -19
0 -6 -103 -114 -153 -160 -22 -20 -29 -22 -42 -11 -20 17 -32 5 -15 -15 12
-14 9 -21 -18 -47 -26 -27 -33 -30 -47 -18 -20 17 -32 5 -15 -15 15 -18 18
-14 -136 -169 -155 -154 -151 -151 -169 -136 -20 17 -32 5 -15 -15 16 -19 62
29 -456 -489 -518 -518 -470 -472 -489 -456 -20 17 -32 5 -15 -15 16 -19 40 8
-292 -325 -144 -144 -258 -266 -258 -276 0 -9 -8 -26 -17 -37 -13 -14 -19 -41
-21 -101 -3 -57 -9 -86 -21 -100 -13 -14 -17 -45 -19 -160 -3 -115 -7 -144
-20 -160 -13 -14 -18 -42 -20 -125 -3 -78 -8 -111 -19 -123 l-16 -18 34 -15
c19 -9 45 -23 59 -30 21 -13 276 -14 1797 -12 l1773 2 30 33 c16 18 30 40 30
49 0 9 8 25 18 36 14 16 18 43 20 161 3 115 7 144 20 160 14 14 18 43 20 140
3 95 7 125 20 140 13 14 17 38 17 101 l0 83 -29 28 -28 29 -1025 3 c-897 2
-1024 4 -1021 17 5 24 480 495 499 495 26 0 79 52 88 85 5 21 16 31 39 37 24
7 33 16 40 40 6 23 16 34 36 39 38 11 194 166 204 203 6 22 16 32 38 38 20 5
233 211 714 693 l685 685 3 103 c3 77 8 106 20 121 14 14 18 45 20 160 3 115
7 144 20 160 14 14 17 39 17 121 l0 103 -29 28 -28 29 -1712 1 c-941 1 -1718
0 -1728 -3z"/>
<path d="M39930 22743 c-8 -3 -26 -17 -40 -31 l-25 -24 -3 -162 c-3 -134 -6
-164 -20 -180 -13 -14 -18 -42 -20 -120 -3 -76 -8 -105 -20 -120 -13 -14 -18
-44 -20 -140 -3 -95 -7 -125 -20 -140 -13 -14 -18 -44 -20 -139 l-4 -121 -34
-42 c-30 -36 -32 -43 -19 -54 23 -19 21 -177 -2 -203 -14 -15 -19 -41 -21
-121 -3 -76 -8 -105 -20 -120 -13 -14 -18 -43 -20 -120 -3 -76 -8 -105 -20
-120 -14 -14 -18 -45 -20 -160 -3 -115 -7 -144 -20 -160 -14 -14 -18 -43 -20
-140 -3 -95 -7 -125 -20 -140 -14 -15 -18 -45 -20 -160 -3 -115 -7 -144 -20
-160 -15 -16 -17 -51 -17 -301 0 -246 2 -285 16 -301 9 -11 19 -38 22 -62 3
-24 12 -51 21 -61 9 -10 16 -24 16 -33 0 -8 9 -27 20 -41 11 -14 20 -32 20
-40 0 -8 9 -26 20 -40 11 -14 20 -32 20 -41 0 -9 8 -24 18 -34 62 -66 65 -71
52 -87 -16 -20 -5 -32 14 -15 13 10 20 8 42 -9 15 -12 34 -21 42 -21 19 0 72
-49 72 -66 0 -7 -6 -14 -12 -17 -8 -2 -9 -8 -4 -13 5 -5 11 -4 13 4 7 17 63
15 84 -4 10 -9 37 -18 61 -21 24 -3 51 -13 61 -21 10 -9 43 -18 80 -20 38 -3
69 -11 81 -21 16 -14 62 -16 421 -16 359 0 405 2 421 16 12 10 43 18 81 21 37
2 70 11 80 20 11 9 43 17 80 20 39 3 69 10 81 21 10 9 25 17 34 17 8 0 27 9
41 20 14 11 32 20 40 20 8 0 26 9 40 20 14 11 32 20 40 20 8 0 26 9 40 20 14
11 32 20 41 20 8 0 34 18 58 40 24 22 51 40 60 40 9 0 36 18 60 40 28 26 52
40 71 40 l27 0 0 -159 c0 -132 -3 -160 -15 -165 -8 -3 -15 -17 -15 -31 0 -16
6 -25 15 -25 10 0 15 10 15 30 l0 30 132 0 c111 0 134 -3 151 -17 17 -16 49
-18 308 -21 246 -2 294 -1 322 13 l33 15 33 -16 c24 -12 51 -15 102 -12 l69 4
30 32 c17 18 30 40 30 49 0 9 8 25 18 36 14 16 18 43 20 161 3 115 7 144 20
160 14 15 18 44 20 160 3 115 7 144 20 160 13 14 18 42 20 120 3 76 8 105 20
120 14 14 18 45 20 160 3 115 7 144 20 160 14 14 18 43 20 140 3 95 7 125 20
140 14 15 18 45 20 160 3 115 7 144 20 160 14 14 18 43 20 140 3 95 7 125 20
140 13 14 18 42 20 120 3 76 8 105 20 120 13 14 18 44 20 140 3 95 7 125 20
140 14 15 18 45 20 160 3 115 7 144 20 160 13 13 18 44 22 119 3 68 9 102 18
105 7 2 12 -5 12 -16 0 -11 7 -25 15 -32 12 -10 16 -8 25 15 5 14 10 30 10 35
0 4 7 10 15 14 10 4 15 20 15 54 0 27 -3 52 -7 55 -10 11 -33 -13 -33 -34 0
-11 -7 -19 -15 -19 -24 0 -22 236 3 263 14 15 18 42 20 141 3 95 7 125 20 140
14 14 17 39 17 121 0 57 -4 107 -8 112 -5 4 -271 8 -592 8 l-583 0 -28 -29
-29 -28 -3 -102 c-3 -76 -8 -105 -20 -120 -13 -14 -18 -44 -20 -140 -3 -95 -7
-125 -20 -140 -14 -15 -18 -45 -20 -160 -3 -115 -7 -144 -20 -160 -13 -14 -18
-42 -20 -123 -3 -81 -7 -106 -19 -110 -8 -3 -19 0 -23 8 -5 7 -13 10 -17 5 -4
-5 -2 -11 5 -13 9 -4 12 -44 12 -156 0 -129 -2 -153 -17 -170 -15 -16 -19 -43
-21 -161 -3 -115 -7 -144 -20 -160 -13 -14 -18 -42 -20 -120 -3 -76 -8 -105
-20 -120 -13 -14 -18 -44 -20 -140 -3 -95 -7 -125 -20 -140 -14 -14 -18 -44
-20 -140 -3 -95 -7 -125 -20 -140 -12 -13 -18 -41 -20 -100 -3 -53 -9 -87 -19
-98 -8 -9 -17 -38 -21 -64 -6 -41 -11 -49 -35 -55 -15 -4 -53 -33 -84 -63 -31
-31 -64 -56 -74 -56 -9 0 -28 -9 -42 -20 -14 -11 -32 -20 -40 -20 -8 0 -26 -9
-40 -20 -14 -11 -32 -20 -40 -20 -8 0 -25 -8 -38 -19 -15 -12 -46 -20 -86 -23
-39 -3 -69 -10 -81 -21 -27 -25 -406 -26 -433 -1 -9 8 -37 18 -61 22 -44 7
-73 25 -117 75 -20 22 -22 29 -11 42 16 20 5 32 -14 16 -18 -15 -36 -6 -36 18
0 10 -8 29 -19 42 -10 13 -21 43 -24 67 -3 24 -12 51 -21 61 -12 13 -16 39
-16 99 l0 82 36 15 37 15 -17 18 c-25 28 -24 297 2 325 14 16 18 43 20 161 3
115 7 144 20 160 13 14 18 42 20 120 3 76 8 105 20 120 13 14 18 44 20 140 3
95 7 125 20 140 14 15 18 45 20 160 3 115 7 144 20 160 14 15 18 44 20 160 3
115 7 144 20 160 13 14 18 42 20 120 3 76 8 105 20 120 14 14 18 45 20 160 3
115 7 144 20 160 13 14 17 38 17 101 0 46 -4 87 -8 92 -10 9 -1143 15 -1167 6z"/>
<path d="M17530 18383 c-8 -3 -22 -11 -30 -18 -8 -7 -43 -15 -77 -17 -37 -2
-70 -11 -80 -20 -10 -8 -37 -18 -61 -21 -24 -3 -51 -12 -61 -21 -10 -9 -24
-16 -33 -16 -8 0 -27 -9 -41 -20 -14 -11 -32 -20 -41 -20 -9 0 -44 -27 -78
-60 -35 -33 -71 -60 -81 -60 -23 0 -87 -64 -87 -87 0 -10 -27 -46 -60 -81 -33
-34 -60 -69 -60 -78 0 -9 -9 -27 -20 -41 -11 -14 -20 -33 -20 -41 0 -9 -7 -23
-16 -33 -9 -10 -18 -37 -21 -61 -3 -24 -13 -51 -22 -62 -12 -13 -17 -44 -19
-120 -3 -76 -8 -106 -20 -120 -22 -24 -22 -98 -1 -122 10 -12 18 -43 21 -81 3
-39 10 -69 21 -81 9 -10 17 -25 17 -34 0 -8 9 -27 20 -41 11 -14 20 -32 20
-40 0 -8 9 -26 20 -40 11 -14 20 -33 20 -42 0 -22 182 -205 205 -205 9 0 28
-9 42 -20 14 -11 33 -20 41 -20 9 0 23 -7 33 -16 10 -9 37 -18 61 -21 24 -3
51 -13 62 -22 15 -14 50 -16 241 -16 192 0 225 2 241 16 12 10 43 18 81 21 37
2 70 11 80 20 10 8 37 18 61 21 31 4 52 15 79 41 21 20 45 36 55 36 9 0 36 18
60 40 24 22 52 40 62 40 10 0 61 42 112 94 52 51 94 102 94 112 0 10 18 38 40
62 22 24 40 50 40 58 0 9 9 27 20 41 11 14 20 33 20 41 0 9 8 24 17 35 13 14
19 41 21 101 3 57 9 86 21 100 24 27 24 255 0 282 -10 12 -18 43 -21 81 -3 39
-10 69 -21 81 -9 10 -17 25 -17 34 0 8 -9 27 -20 41 -11 14 -20 33 -20 42 0
22 -183 205 -205 205 -9 0 -28 9 -42 20 -14 11 -33 20 -41 20 -9 0 -23 7 -33
16 -10 9 -37 18 -61 21 -24 3 -51 13 -61 21 -10 9 -43 18 -80 20 -38 3 -69 11
-81 21 -14 13 -44 16 -150 18 -72 1 -138 0 -146 -4z"/>
<path d="M21330 18383 c-8 -3 -22 -11 -30 -18 -9 -7 -50 -15 -96 -17 -57 -2
-88 -8 -100 -19 -11 -9 -38 -19 -62 -22 -24 -3 -51 -12 -61 -21 -10 -9 -25
-16 -34 -16 -9 0 -35 -18 -59 -40 -24 -22 -51 -40 -61 -40 -24 0 -287 -262
-287 -285 0 -9 -9 -28 -20 -42 -11 -14 -20 -32 -20 -40 0 -8 -9 -26 -20 -40
-11 -14 -20 -33 -20 -41 0 -9 -7 -23 -16 -33 -9 -10 -18 -37 -21 -61 -3 -24
-13 -51 -22 -62 -14 -15 -16 -50 -16 -241 0 -198 2 -225 18 -242 9 -11 17 -26
17 -35 0 -8 9 -27 20 -41 11 -14 20 -32 20 -40 0 -8 9 -26 20 -40 11 -14 20
-33 20 -42 0 -23 144 -165 167 -165 10 0 35 -16 56 -36 26 -26 48 -37 79 -41
24 -3 54 -14 67 -24 13 -11 31 -19 39 -19 9 0 24 -8 35 -17 17 -16 45 -18 262
-18 210 0 245 2 261 16 11 9 38 19 62 22 24 3 51 12 60 20 9 8 36 17 60 20 24
3 51 12 60 20 9 8 36 17 60 20 35 4 53 15 99 61 31 31 66 56 76 56 26 0 207
181 207 206 0 10 18 38 40 62 22 24 40 50 40 59 0 9 7 24 16 34 9 10 18 37 21
61 3 24 13 51 22 62 11 12 17 43 19 100 3 57 9 86 21 100 9 11 16 35 16 61 0
26 -7 50 -16 61 -12 14 -18 43 -21 100 -2 60 -8 87 -21 101 -21 23 -24 119 -4
126 6 2 8 8 4 13 -4 5 -12 2 -17 -5 -11 -19 -40 -6 -40 18 0 11 -18 39 -40 63
-22 24 -40 51 -40 61 0 23 -64 87 -87 87 -10 0 -37 18 -61 40 -24 22 -50 40
-59 40 -9 0 -24 7 -34 16 -10 9 -37 18 -61 21 -24 3 -51 13 -62 22 -13 12 -44
17 -120 19 -76 3 -105 8 -120 20 -13 13 -41 18 -110 19 -50 1 -98 0 -106 -4z"/>
<path d="M12520 18145 l-34 -35 -1007 0 c-879 0 -1008 2 -1019 15 -16 20 -30
10 -30 -22 0 -17 15 -41 46 -72 l46 -46 177 -3 c203 -3 211 -4 186 -32 -22
-24 -12 -40 24 -40 23 0 30 6 37 33 l10 32 163 3 c145 2 166 0 183 -15 l20
-18 301 -3 c268 -3 303 -5 320 -20 17 -15 52 -17 300 -20 249 -3 284 -5 300
-20 17 -15 50 -17 260 -20 211 -3 244 -5 260 -20 17 -15 51 -17 280 -20 230
-3 264 -5 280 -20 17 -15 52 -17 300 -20 249 -3 284 -5 300 -20 17 -15 55 -17
360 -20 306 -2 343 -5 360 -20 17 -15 50 -17 280 -20 230 -3 264 -5 280 -20
l19 -17 384 0 384 0 30 33 c16 18 30 40 30 49 0 8 9 26 20 40 11 14 20 32 20
40 0 8 9 26 20 40 11 14 20 32 20 40 0 8 9 26 20 40 11 14 20 34 20 43 0 10 7
23 15 30 8 7 15 27 15 45 0 39 -14 45 -111 45 -47 0 -70 4 -79 15 -16 19 -74
19 -90 0 -11 -13 -193 -15 -1558 -13 l-1546 3 -10 33 c-7 26 -14 32 -37 32
-35 0 -46 -16 -25 -39 9 -10 13 -21 9 -24 -13 -14 -96 -7 -114 9 -14 12 -21
13 -37 3 -16 -10 -24 -9 -43 4 -13 10 -33 17 -45 17 -12 0 -27 7 -34 15 -16
19 -40 3 -40 -26 0 -11 -7 -19 -15 -19 -8 0 -15 8 -15 19 0 26 -23 44 -38 29
-7 -7 -12 -20 -12 -30 0 -30 -27 -20 -33 12 -6 26 -11 30 -39 30 -24 -1 -42
-10 -68 -35z"/>
<path d="M15530 17103 c-8 -3 -22 -12 -30 -19 -12 -10 -84 -14 -317 -16 -268
-3 -303 -5 -320 -20 l-19 -18 -561 -2 -561 -3 -19 -17 -19 -18 -641 -2 -641
-3 -19 -17 c-13 -12 -46 -20 -101 -25 -91 -9 -108 -24 -36 -35 26 -4 51 -14
59 -25 l13 -18 229 -3 c182 -3 231 -6 244 -18 14 -13 18 -13 29 1 18 21 98 20
123 -2 17 -16 48 -18 280 -21 230 -3 264 -5 280 -20 17 -15 53 -17 320 -20
268 -3 303 -5 320 -20 17 -15 49 -17 240 -20 192 -3 224 -5 240 -20 17 -15 53
-17 300 -20 249 -3 284 -5 300 -20 17 -15 53 -17 320 -20 268 -3 303 -5 320
-20 17 -15 51 -17 285 -20 221 -2 269 -6 283 -18 21 -19 30 -7 32 45 1 25 -5
47 -16 59 -9 10 -17 26 -17 35 0 9 -18 35 -39 58 -29 32 -40 53 -44 86 -2 24
-12 52 -21 62 -9 10 -16 25 -16 34 0 10 -23 41 -51 70 l-50 52 -332 2 c-183 1
-339 -1 -347 -4z"/>
</g>
</svg>
